<svg id="Layer_1" data-name="Layer 1" xmlns="http://www.w3.org/2000/svg" viewBox="0 0 1920 921"><defs><style>.cls-1{fill:none;stroke:#fff;stroke-miterlimit:10;}.cls-2{fill:#ffc107;}</style></defs><title>aboutBg</title><line class="cls-1" x1="144" y1="-88.5" x2="144" y2="991.5"/><line class="cls-1" x1="1779.5" y1="-88" x2="1779.5" y2="992"/><path class="cls-2" d="M1920,920.5,0,921.5V680.94c37.41-8.87,43.68-12.67,69-11.44,68.95,3.34,151.33,37.75,201,104,37.39,49.88,23.87,74.63,58,98,40,27.36,88.05,13.65,184-6,117.18-24,175.77-36,211-37,159.13-4.55,176.49,81.51,316,63,48.48-6.43,70.54-12.4,109.72-20.42,108.56-22.22,201.61-6.93,238.28-.58a634.42,634.42,0,0,1,62,14C1522.82,904.4,1656.78,923.09,1920,920.5Z"/></svg>