<svg id="Layer_1" data-name="Layer 1" xmlns="http://www.w3.org/2000/svg" viewBox="0 0 1920 1080"><defs><style>.cls-1{fill:none;stroke:#fff;stroke-miterlimit:10;}.cls-2{fill:#ffc107;}</style></defs><title>aboutBg</title><line class="cls-1" x1="144" y1="-0.5" x2="144" y2="1079.5"/><line class="cls-1" x1="1779.5" x2="1779.5" y2="1080"/><path class="cls-2" d="M1362.37,1009.5H0V768.94c37.41-8.87,43.68-12.67,69-11.44,68.95,3.34,151.33,37.75,201,104,37.39,49.88,23.87,74.63,58,98,40,27.36,88.05,13.65,184-6,117.18-24,175.77-36,211-37,159.13-4.55,176.49,81.51,316,63,46-6.11,87-21.17,183-29,64.27-5.24,95.61-2.55,117,18C1349.82,978.9,1357.85,993.63,1362.37,1009.5Z"/></svg>