<svg id="Layer_1" data-name="Layer 1" xmlns="http://www.w3.org/2000/svg" viewBox="0 0 1920 935"><defs><style>.cls-1{fill:#673ab7;}</style></defs><title>landingBg</title><path class="cls-1" d="M1920-1.79c19.8,40.08,18.87,147.3,17,361.76-1.49,170.87-14,206.45,2,277.75,12,53.56,8.21,109.43,13,164.08.9,10.25,2.19,24.76-5,40.53-17.66,38.72-70.31,49.74-108,57.33-48.54,9.78-98.18,5.1-147.11,1.56-44.89-3.26-88.61-1.56-133.51-1.17-71.31.62-142.77,3.87-210.22-21.36-62.94-23.54-111.59-57.53-182.05-58.54-80.68-1.15-156.64,20.71-230.18,49.25-22.51,8.73-46.37,18.59-70.49,14.77-27.79-4.39-48.49-26.1-60.89-49-27.73-51.31-21.16-107.14,3.09-158.2,11.08-23.35,24.51-45.58,39.2-67.19,6.73-9.91,13.73-19.68,20.89-29.37,19.39-26.24,40-51.9,59.69-78q5.73-7.56,11.33-15.17c47.39-64.37,55.27-147.7,16.43-216.65-20.43-36.25-52.06-66.59-86.61-93.52C834.84,150.79,795,131.69,774,95.9c-19.17-32.67-7.29-68.34,14.32-97.69C1110.66-73.79,1817.25-209.76,1920-1.79Z"/><path class="cls-1" d="M127,41.57c0,49.68-54.26,90-121.2,90-2.28,0-4.55,0-6.8-.14V.5H113.66C122.19,12.81,127,26.78,127,41.57Z"/></svg>